PathFileType	4	(X/Y/Z)	C:\Users\Admin\Desktop\Capture Files\05302019 Reflex Trials\AcheillesTrialStatic_1-Unnamed.trc
DataRate	CameraRate	NumFrames	NumMarkers	Units	OrigDataRate	OrigDataStartFrame	OrigNumFrames
300.00	300.00	      18	0	mm	300.00	707	      1130
Frame#	Time	
		

707	2.353	111.64270	242.83487	383.11395	148.93451	203.80072	235.95274	89.57750	133.56818	368.16904	98.78754	156.62688	303.95621	200.58447	-309.31494	928.30005	145.13266	355.66986	155.10928	-231.74974	209.68584	318.50314	-214.52002	-217.41479	665.95624	289.13876	-317.21771	1019.81567	72.57278	245.46840	246.29822	280.24686	-141.22368	964.27332				124.44715	309.74237	207.65288							91.45036	245.41225	565.34033	113.32975	254.43607	320.45251	
708	2.357	111.64705	242.81058	383.10336	148.98181	203.80383	235.93347	89.59180	133.56879	368.18219				200.58554	-309.35083	928.28296	145.14484	355.66000	155.09937	-231.74678	209.68665	318.49811	-214.54614	-217.43285	665.93958	289.14975	-317.23663	1019.81177	72.58417	245.44876	246.27109	280.25153	-141.22133	964.26776	99.26210	156.09161	304.05478	124.46365	309.75040	207.64417							91.46608	245.42413	565.34595	113.32900	254.43810	320.45572	
709	2.360	111.63807	242.83940	383.11588	148.95670	203.81619	235.94392	88.46738	134.82455	368.00549				200.60803	-309.36346	928.29657	145.14864	355.65573	155.09590	-231.74156	209.67691	318.48804	-214.53085	-217.42119	665.92542	289.11142	-317.16333	1019.84009	72.58797	245.44612	246.28908	280.24268	-141.22238	964.27606	99.28173	156.07278	304.05499	124.45856	309.74231	207.64021							91.46513	245.42587	565.34015	113.32607	254.43698	320.45099	
710	2.363	111.64784	242.82257	383.09671	148.93298	203.77303	235.93753	88.46464	134.80794	368.01608				200.59772	-309.36633	928.31226	145.16106	355.66000	155.09373	-231.73759	209.68222	318.48898	-214.51990	-217.42963	665.97888	289.14334	-317.29135	1019.80817	72.60080	245.44049	246.28036	280.25583	-141.21681	964.26013	99.24554	156.06450	304.04562	124.47669	309.74994	207.64507							91.47300	245.42595	565.32208	113.33351	254.42508	320.44583	
711	2.367	111.65020	242.82184	383.09521	148.96001	203.79007	235.94955				89.64378	133.56900	368.17044	200.56274	-309.31915	928.32837	145.16751	355.64209	155.09959	-231.74316	209.68300	318.48032	-214.53076	-217.43866	665.93396	289.12869	-317.23270	1019.79242	72.61318	245.44208	246.27058	280.22467	-141.23117	964.27734	99.27632	156.07869	304.05267	124.46632	309.74567	207.64218							91.47241	245.43280	565.32983	113.33145	254.43800	320.44135	
712	2.370	111.65170	242.82120	383.09174	148.96338	203.78462	235.92511				88.51654	134.81372	367.98053	200.57152	-309.31067	928.32867	145.17570	355.64001	155.09225	-231.74983	209.68187	318.47519	-214.49217	-217.39249	665.96545	289.10629	-317.20920	1019.81506	72.61758	245.45892	246.26906	280.21970	-141.21808	964.27576	99.28559	156.07753	304.06384	124.48117	309.74008	207.63098							91.47896	245.43005	565.32819	113.34559	254.43292	320.44464	
713	2.373	111.66403	242.82121	383.09357	149.02890	203.80118	235.94202	89.60218	133.59621	368.16367				200.57835	-309.36124	928.32953	145.17889	355.65384	155.09045	-231.74358	209.68626	318.47641	-214.52840	-217.42264	665.97028	289.08206	-317.19278	1019.81525	72.61899	245.43999	246.27487	280.20602	-141.20117	964.27924	99.29948	156.08333	304.03467	124.48713	309.75726	207.63963							91.48257	245.43137	565.31335	113.33451	254.43410	320.43579	
714	2.377	111.66074	242.81601	383.08130	148.99307	203.80309	235.95026	89.60662	133.58609	368.14105				200.58885	-309.38574	928.32587	145.19374	355.64157	155.07909	-231.76697	209.69939	318.47220	-214.51132	-217.42172	665.98090	289.09882	-317.23633	1019.81921	72.61278	245.45680	246.27199	280.20596	-141.20306	964.28833	99.31171	156.08907	304.04868	124.48367	309.74078	207.63873							91.47611	245.44357	565.33130	113.36295	254.42560	320.43546	
715	2.380	111.66628	242.83788	383.08911	149.00845	203.80196	235.92429	89.60342	133.59479	368.15295				200.57536	-309.36597	928.33325	145.20045	355.64435	155.08429	-231.75139	209.70389	318.46539	-214.52876	-217.43823	665.98907	289.07306	-317.11270	1019.85077	72.63467	245.45018	246.25682	280.19449	-141.21318	964.28412	99.31515	156.11433	304.04565	124.51854	309.74280	207.63074							91.48068	245.43875	565.31818	113.36450	254.43565	320.42496	
716	2.383	111.67739	242.83372	383.08478	149.00783	203.79219	235.92180	89.67690	133.61754	368.15576				200.57112	-309.38324	928.33136	145.22203	355.63004	155.07027	-231.76064	209.69249	318.47101	-214.56390	-217.43311	665.98285	289.11295	-317.16293	1019.82428	72.64692	245.44362	246.26567	280.18652	-141.22592	964.28778	99.32357	156.10489	304.06342	124.52345	309.74301	207.61418							91.48555	245.44318	565.31525	113.35654	254.41573	320.41724	
717	2.387	111.67787	242.83302	383.08514	149.01961	203.81633	235.94167	89.63138	133.61456	368.14218				200.55902	-309.33401	928.33002	145.24100	355.63766	155.07706	-231.75510	209.70482	318.45645	-214.52945	-217.40997	665.96564	289.06430	-317.15967	1019.84247	72.64941	245.44461	246.25232	280.15680	-141.22974	964.28027	99.30130	156.09436	304.04065	124.52050	309.73715	207.63606							91.47739	245.44264	565.30627	113.36649	254.43268	320.42657	
718	2.390	111.67832	242.82784	383.07465	149.03386	203.79544	235.92499	89.61247	133.60664	368.14343				200.56340	-309.36310	928.33258	145.23390	355.63397	155.08325	-231.76633	209.71686	318.45941	-214.52960	-217.42792	665.96729	289.07330	-317.13800	1019.86127	72.65546	245.45236	246.25830	280.15561	-141.22073	964.28809	99.34229	156.11560	304.04611	124.53157	309.73532	207.61499							91.49576	245.44482	565.30933	113.37918	254.41508	320.41943	
719	2.393	111.68421	242.82678	383.07718	149.04161	203.81088	235.94334	88.53712	134.83804	368.01080				200.53967	-309.26309	928.33972	145.25293	355.63809	155.06825	-231.75623	209.70515	318.45978	-214.57146	-217.40503	665.96686	289.04520	-317.08255	1019.88123	72.65625	245.45200	246.25990	280.15002	-141.22417	964.29358	99.33010	156.09259	304.02991	124.55046	309.73795	207.61998							91.48093	245.45203	565.30688	113.38224	254.42809	320.41394	
720	2.397	111.69350	242.83659	383.08023	149.04196	203.78874	235.90820				89.64106	133.60471	368.13538	200.55145	-309.33740	928.34955	145.24606	355.63538	155.07265	-231.75252	209.70473	318.45667	-214.55042	-217.40536	665.94800	289.08734	-317.19733	1019.81543	72.66013	245.44614	246.24120	280.14777	-141.21164	964.28809	99.34381	156.09691	304.03629	124.54813	309.73938	207.61404							91.49239	245.45010	565.30524	113.38673	254.42006	320.41040	
721	2.400	111.69367	242.82948	383.08127	149.05136	203.80542	235.92311				88.54889	134.83694	367.98892	200.54118	-309.29535	928.32758	145.25594	355.63849	155.06732	-231.75584	209.70688	318.44980	-214.54242	-217.40236	665.98926	289.03424	-317.08334	1019.86493	72.67854	245.45393	246.24579	280.14740	-141.20743	964.29913	99.36754	156.10980	304.03116	124.54728	309.73694	207.60876							91.48779	245.45398	565.29810	113.38301	254.42903	320.40802	
722	2.403	111.70144	242.82767	383.05823	149.05266	203.80286	235.92691				88.57623	134.84013	367.99509	200.53940	-309.33148	928.31586	145.25729	355.64215	155.06660	-231.75305	209.71695	318.45313	-214.53107	-217.39917	665.96259	289.06134	-317.15976	1019.85016	72.67806	245.44447	246.24205	280.14499	-141.20393	964.29266	99.34315	156.09990	304.03796	124.56645	309.74451	207.59825							91.50004	245.45189	565.29852	113.39373	254.42618	320.40701	
723	2.407	111.71065	242.83710	383.05576	149.07919	203.79033	235.90324				88.57027	134.83879	368.01584	200.53734	-309.35077	928.31470	145.29051	355.63358	155.06416	-231.75629	209.70499	318.44437	-214.56442	-217.40936	665.97736	289.04395	-317.16687	1019.84784	72.68539	245.44092	246.24068	280.15915	-141.20921	964.29059	99.36652	156.09679	304.02066	124.56757	309.74695	207.59612							91.50326	245.45317	565.28534	113.39180	254.42834	320.40652	
724	2.410	111.71603	242.83052	383.06177	149.05557	203.78033	235.88264	89.68195	133.60583	368.12506				200.54558	-309.34656	928.33502	145.30249	355.63062	155.05891	-231.76286	209.70598	318.44757	-214.55276	-217.37317	665.96747	289.02600	-317.13422	1019.84271	72.70991	245.43228	246.23311	280.14355	-141.19560	964.30200	99.35098	156.09464	304.02441	124.58909	309.74377	207.59618							91.48853	245.46141	565.30225	113.40018	254.43932	320.40457	
